<mxfile host="app.diagrams.net" modified="2023-06-03T13:43:44.081Z" agent="Mozilla/5.0 (X11; Ubuntu; Linux x86_64; rv:109.0) Gecko/20100101 Firefox/113.0" version="21.2.9" etag="RG62fqpt3Ec4QpAiPY9o" type="github">
  <diagram name="Page-1" id="8ppz4S1K6DmJcD3MSAi7">
    <mxGraphModel>
      <root>
        <mxCell id="0" />
        <mxCell id="1" parent="0" />
      </root>
    </mxGraphModel>
  </diagram>
</mxfile>
